<svg id="kity_svg_6" xmlns="http://www.w3.org/2000/svg" xmlns:xlink="http://www.w3.org/1999/xlink" version="1.1" width="494" height="878" style="background: rgb(251, 251, 251); visibility: visible;" viewBox="0 0 494 878"><defs id="kity_defs_7"><linearGradient id="kity_linearGradient_17" x1="0" y1="0" x2="0" y2="1"><stop id="kity_stop_18" offset="0" stop-color="rgb(255, 255, 255)"></stop><stop id="kity_stop_19" offset="1" stop-color="rgb(204, 204, 204)"></stop></linearGradient><marker id="kity_marker_2" orient="auto" refX="6" refY="0" viewBox="-7 -7 14 14" markerWidth="7" markerHeight="7" markerUnits="userSpaceOnUse"><path id="kity_path_3" fill="rgb(115, 161, 191)" stroke="none" d="M6,0A6,6,0,1,1,-6,0A6,6,0,1,1,6,0"></path></marker></defs><g id="kity_g_8"><g id="minder1" text-rendering="optimize-speed"><g id="minder_connect_group1"><path id="kity_path_31" fill="none" stroke="rgb(115, 161, 191)" stroke-width="1" d="M61.00000626593828,586.5000102743506A158.5,255,0,0,1,219.50000626593828,331.50001027435064"></path><path id="kity_path_39" fill="none" stroke="rgb(115, 161, 191)" stroke-width="1" d="M61.00000626593828,586.5000102743506A158.5,112,0,0,0,219.50000626593828,698.5000102743506"></path><path id="kity_path_47" fill="none" stroke="rgb(115, 161, 191)" stroke-width="1" d="M61.00000626593828,586.5000102743506A158.5,184,0,0,0,219.50000626593828,770.5000102743506"></path><path id="kity_path_55" fill="none" stroke="rgb(115, 161, 191)" stroke-width="1" d="M61.00000626593828,586.5000102743506A158.5,256,0,0,0,219.50000626593828,842.5000102743506"></path><path id="kity_path_63" fill="none" stroke="rgb(115, 161, 191)" stroke-width="1" d="M329.5000062659383,331.50001027435064C349.5000062659383,331.50001027435064,349.5000062659383,35.50001027435064,369.5000062659383,35.50001027435064"></path><path id="kity_path_71" fill="none" stroke="rgb(115, 161, 191)" stroke-width="1" d="M329.5000062659383,331.50001027435064C349.5000062659383,331.50001027435064,349.5000062659383,95.50001027435064,369.5000062659383,95.50001027435064"></path><path id="kity_path_79" fill="none" stroke="rgb(115, 161, 191)" stroke-width="1" d="M329.5000062659383,331.50001027435064C349.5000062659383,331.50001027435064,349.5000062659383,215.50001027435064,369.5000062659383,215.50001027435064"></path><path id="kity_path_87" fill="none" stroke="rgb(115, 161, 191)" stroke-width="1" d="M329.5000062659383,331.50001027435064C349.5000062659383,331.50001027435064,349.5000062659383,275.50001027435064,369.5000062659383,275.50001027435064"></path><path id="kity_path_95" fill="none" stroke="rgb(115, 161, 191)" stroke-width="1" d="M329.5000062659383,331.50001027435064C349.5000062659383,331.50001027435064,349.5000062659383,155.50001027435064,369.5000062659383,155.50001027435064"></path><path id="kity_path_148" fill="none" stroke="rgb(115, 161, 191)" stroke-width="1" d="M329.5000062659383,331.50001027435064C349.5000062659383,331.50001027435064,349.5000062659383,507.50001027435064,369.5000062659383,507.50001027435064"></path><path id="kity_path_156" fill="none" stroke="rgb(115, 161, 191)" stroke-width="1" d="M329.5000062659383,331.50001027435064C349.5000062659383,331.50001027435064,349.5000062659383,627.5000102743506,369.5000062659383,627.5000102743506"></path><path id="kity_path_164" fill="none" stroke="rgb(115, 161, 191)" stroke-width="1" d="M329.5000062659383,331.50001027435064C349.5000062659383,331.50001027435064,349.5000062659383,567.5000102743506,369.5000062659383,567.5000102743506"></path><path id="kity_path_172" fill="none" stroke="rgb(115, 161, 191)" stroke-width="1" d="M329.5000062659383,331.50001027435064C349.5000062659383,331.50001027435064,349.5000062659383,387.50001027435064,369.5000062659383,387.50001027435064"></path><path id="kity_path_180" fill="none" stroke="rgb(115, 161, 191)" stroke-width="1" d="M329.5000062659383,331.50001027435064C349.5000062659383,331.50001027435064,349.5000062659383,447.50001027435064,369.5000062659383,447.50001027435064"></path><path id="kity_path_213" fill="none" stroke="rgb(115, 161, 191)" stroke-width="1" d="M329.5000062659383,331.50001027435064C349.5000062659383,331.50001027435064,349.5000062659383,331.50001027435064,369.5000062659383,331.50001027435064"></path></g><g id="minder_node1"><path id="node_outline1" fill="rgb(115, 161, 191)" stroke="rgb(115, 161, 191)" d="M25.500006265938282,566.5000102743506h71a5,5,0,0,1,5,5v30a5,5,0,0,1,-5,5h-71a5,5,0,0,1,-5,-5v-30a5,5,0,0,1,5,-5z" stroke-width="3"></path><g id="node_text1" fill="white"><text id="kity_text_22" text-rendering="inherit" font-size="16" dy=".8em" y="576.1000102385879" x="44.50000626593828">演示</text></g></g><g id="kity_g_14" display="none"><path id="kity_path_15" fill="rgba(0, 92, 153, 0.5)" stroke="none" d="M221.50000626593828,257.50001027435064h108v20h-108z"></path><path id="kity_path_16" fill="none" stroke="rgb(0, 76, 128)" d="M221.50000626593828,277.50001027435064L329.5000062659383,277.50001027435064" stroke-width="1"></path></g><g id="minder_node2"><g id="node_expander1" style="cursor: pointer;"><path id="kity_path_36" fill="white" stroke="gray" d="M220.50000879913568,331.50000647455454A6,6,0,1,1,208.50000879913568,331.50000647455454A6,6,0,1,1,220.50000879913568,331.50000647455454"></path><path id="kity_path_37" fill="none" stroke="gray" d="M210.00000879913568,331.50000647455454L219.00000879913568,331.50000647455454"></path></g><path id="node_outline2" fill="rgb(238, 243, 246)" stroke="rgb(115, 161, 191)" d="M224.50000957399607,315.50000647455454h102a3,3,0,0,1,3,3v26a3,3,0,0,1,-3,3h-102a3,3,0,0,1,-3,-3v-26a3,3,0,0,1,3,-3z" stroke-width="1"></path><g id="node_text2" fill="black"><text id="kity_text_33" text-rendering="inherit" font-size="14" dy=".8em" y="322.4000064432621" x="266.50000957399607">知识库</text></g><g id="node_priority1"><path id="kity_path_104" fill="#840023" stroke="none" d="M242.00000920891762,335.0000063329935c0,3.866,3.134,7,7,7h6c3.866,0,7,-3.134,7,-7V329.0000063329935H242.00000920891762V335.0000063329935z"></path><path id="kity_path_105" fill="#FF1200" stroke="none" d="M262.0000092089176,332.0000063329935c0,3.866,-3.134,7,-7,7H249.00000920891762c-3.866,0,-7,-3.134,-7,-7V329.0000063329935c0,-3.866,3.134,-7,7,-7h6c3.866,0,7,3.134,7,7V332.0000063329935z" opacity="0.8"></path><text id="kity_text_106" text-rendering="geometricPrecision" x="251.00000920146704" y="331.5000063255429" text-anchor="middle" font-style="italic" font-size="12" fill="white" dy="5">1</text></g></g><g id="minder_node3"><g id="node_expander2" style="cursor: pointer;" display="none"><path id="kity_path_44" fill="white" stroke="gray" d="M220.50000879913568,698.5000119432807A6,6,0,1,1,208.50000879913568,698.5000119432807A6,6,0,1,1,220.50000879913568,698.5000119432807"></path><path id="kity_path_45" fill="none" stroke="gray"></path></g><path id="node_outline3" fill="rgb(238, 243, 246)" stroke="rgb(115, 161, 191)" d="M224.50000957399607,682.5000119432807h87a3,3,0,0,1,3,3v26a3,3,0,0,1,-3,3h-87a3,3,0,0,1,-3,-3v-26a3,3,0,0,1,3,-3z" stroke-width="1"></path><g id="node_text3" fill="black"><text id="kity_text_41" text-rendering="inherit" font-size="14" dy=".8em" y="689.4000119119883" x="266.50000957399607">意图</text></g><g id="node_priority2"><path id="kity_path_109" fill="#01467F" stroke="none" d="M242.00000920891762,702.0000118017197c0,3.866,3.134,7,7,7h6c3.866,0,7,-3.134,7,-7V696.0000118017197H242.00000920891762V702.0000118017197z"></path><path id="kity_path_110" fill="#0074FF" stroke="none" d="M262.0000092089176,699.0000118017197c0,3.866,-3.134,7,-7,7H249.00000920891762c-3.866,0,-7,-3.134,-7,-7V696.0000118017197c0,-3.866,3.134,-7,7,-7h6c3.866,0,7,3.134,7,7V699.0000118017197z" opacity="0.8"></path><text id="kity_text_111" text-rendering="geometricPrecision" x="251.00000920146704" y="698.5000117942691" text-anchor="middle" font-style="italic" font-size="12" fill="white" dy="5">2</text></g></g><g id="minder_node4"><g id="node_expander3" style="cursor: pointer;" display="none"><path id="kity_path_52" fill="white" stroke="gray" d="M220.50000879913568,770.5000130161643A6,6,0,1,1,208.50000879913568,770.5000130161643A6,6,0,1,1,220.50000879913568,770.5000130161643"></path><path id="kity_path_53" fill="none" stroke="gray"></path></g><path id="node_outline4" fill="rgb(238, 243, 246)" stroke="rgb(115, 161, 191)" d="M224.50000957399607,754.5000130161643h116a3,3,0,0,1,3,3v26a3,3,0,0,1,-3,3h-116a3,3,0,0,1,-3,-3v-26a3,3,0,0,1,3,-3z" stroke-width="1"></path><g id="node_text4" fill="black"><text id="kity_text_49" text-rendering="inherit" font-size="14" dy=".8em" y="761.4000129848719" x="266.50000957399607">机器学习</text></g><g id="node_priority3"><path id="kity_path_114" fill="#006300" stroke="none" d="M242.00000920891762,774.0000128746033c0,3.866,3.134,7,7,7h6c3.866,0,7,-3.134,7,-7V768.0000128746033H242.00000920891762V774.0000128746033z"></path><path id="kity_path_115" fill="#00AF00" stroke="none" d="M262.0000092089176,771.0000128746033c0,3.866,-3.134,7,-7,7H249.00000920891762c-3.866,0,-7,-3.134,-7,-7V768.0000128746033c0,-3.866,3.134,-7,7,-7h6c3.866,0,7,3.134,7,7V771.0000128746033z" opacity="0.8"></path><text id="kity_text_116" text-rendering="geometricPrecision" x="251.00000920146704" y="770.5000128671527" text-anchor="middle" font-style="italic" font-size="12" fill="white" dy="5">3</text></g></g><g id="minder_node5"><g id="node_expander4" style="cursor: pointer;" display="none"><path id="kity_path_60" fill="white" stroke="gray" d="M220.50000879913568,842.5000140890479A6,6,0,1,1,208.50000879913568,842.5000140890479A6,6,0,1,1,220.50000879913568,842.5000140890479"></path><path id="kity_path_61" fill="none" stroke="gray"></path></g><path id="node_outline5" fill="rgb(238, 243, 246)" stroke="rgb(115, 161, 191)" d="M224.50000957399607,826.5000140890479h117a3,3,0,0,1,3,3v26a3,3,0,0,1,-3,3h-117a3,3,0,0,1,-3,-3v-26a3,3,0,0,1,3,-3z" stroke-width="1"></path><g id="node_text5" fill="black"><text id="kity_text_57" text-rendering="inherit" font-size="14" dy=".8em" y="833.4000140577555" x="266.50000957399607">版本迭代</text></g><g id="node_priority4"><path id="kity_path_119" fill="#B25000" stroke="none" d="M242.00000920891762,846.0000139474869c0,3.866,3.134,7,7,7h6c3.866,0,7,-3.134,7,-7V840.0000139474869H242.00000920891762V846.0000139474869z"></path><path id="kity_path_120" fill="#FF962E" stroke="none" d="M262.0000092089176,843.0000139474869c0,3.866,-3.134,7,-7,7H249.00000920891762c-3.866,0,-7,-3.134,-7,-7V840.0000139474869c0,-3.866,3.134,-7,7,-7h6c3.866,0,7,3.134,7,7V843.0000139474869z" opacity="0.8"></path><text id="kity_text_121" text-rendering="geometricPrecision" x="251.00000920146704" y="842.5000139400363" text-anchor="middle" font-style="italic" font-size="12" fill="white" dy="5">4</text></g></g><g id="minder_node6"><g id="node_expander5" style="cursor: pointer;" display="none"><path id="kity_path_68" fill="white" stroke="gray" d="M369.5000110194087,35.500002063810825A6,6,0,1,1,357.5000110194087,35.500002063810825A6,6,0,1,1,369.5000110194087,35.500002063810825"></path><path id="kity_path_69" fill="none" stroke="gray"></path></g><path id="node_outline6" fill="none" stroke="none" d="M374.5000116303563,20.500002063810825h71a5,5,0,0,1,5,5v20a5,5,0,0,1,-5,5h-71a5,5,0,0,1,-5,-5v-20a5,5,0,0,1,5,-5z" stroke-width="3"></path><g id="node_text6" fill="black"><text id="kity_text_65" text-rendering="inherit" font-size="12" dy=".8em" y="27.700002036988735" x="404.5000116303563">＋类目</text></g><g id="node_priority5"><path id="kity_path_124" fill="#840023" stroke="none" d="M380.00001126527786,39.000001922249794c0,3.866,3.134,7,7,7h6c3.866,0,7,-3.134,7,-7V33.000001922249794H380.00001126527786V39.000001922249794z"></path><path id="kity_path_125" fill="#FF1200" stroke="none" d="M400.00001126527786,36.000001922249794c0,3.866,-3.134,7,-7,7H387.00001126527786c-3.866,0,-7,-3.134,-7,-7V33.000001922249794c0,-3.866,3.134,-7,7,-7h6c3.866,0,7,3.134,7,7V36.000001922249794z" opacity="0.8"></path><text id="kity_text_126" text-rendering="geometricPrecision" x="389.0000112578273" y="35.50000191479921" text-anchor="middle" font-style="italic" font-size="12" fill="white" dy="5">1</text></g></g><g id="minder_node7"><g id="node_expander6" style="cursor: pointer;" display="none"><path id="kity_path_76" fill="white" stroke="gray" d="M369.5000110194087,95.5000029578805A6,6,0,1,1,357.5000110194087,95.5000029578805A6,6,0,1,1,369.5000110194087,95.5000029578805"></path><path id="kity_path_77" fill="none" stroke="gray"></path></g><path id="node_outline7" fill="none" stroke="none" d="M374.5000116303563,80.5000029578805h83a5,5,0,0,1,5,5v20a5,5,0,0,1,-5,5h-83a5,5,0,0,1,-5,-5v-20a5,5,0,0,1,5,-5z" stroke-width="3"></path><g id="node_text7" fill="black"><text id="kity_text_73" text-rendering="inherit" font-size="12" dy=".8em" y="87.7000029310584" x="404.5000116303563">＋知识库</text></g><g id="node_priority6"><path id="kity_path_129" fill="#01467F" stroke="none" d="M380.00001126527786,99.00000281631947c0,3.866,3.134,7,7,7h6c3.866,0,7,-3.134,7,-7V93.00000281631947H380.00001126527786V99.00000281631947z"></path><path id="kity_path_130" fill="#0074FF" stroke="none" d="M400.00001126527786,96.00000281631947c0,3.866,-3.134,7,-7,7H387.00001126527786c-3.866,0,-7,-3.134,-7,-7V93.00000281631947c0,-3.866,3.134,-7,7,-7h6c3.866,0,7,3.134,7,7V96.00000281631947z" opacity="0.8"></path><text id="kity_text_131" text-rendering="geometricPrecision" x="389.0000112578273" y="95.50000280886889" text-anchor="middle" font-style="italic" font-size="12" fill="white" dy="5">2</text></g></g><g id="minder_node8"><g id="node_expander7" style="cursor: pointer;" display="none"><path id="kity_path_84" fill="white" stroke="gray" d="M369.5000110194087,215.50000474601984A6,6,0,1,1,357.5000110194087,215.50000474601984A6,6,0,1,1,369.5000110194087,215.50000474601984"></path><path id="kity_path_85" fill="none" stroke="gray"></path></g><path id="node_outline8" fill="none" stroke="none" d="M374.5000116303563,200.50000474601984h84a5,5,0,0,1,5,5v20a5,5,0,0,1,-5,5h-84a5,5,0,0,1,-5,-5v-20a5,5,0,0,1,5,-5z" stroke-width="3"></path><g id="node_text8" fill="black"><text id="kity_text_81" text-rendering="inherit" font-size="12" dy=".8em" y="207.70000471919775" x="404.5000116303563">＋机器人</text></g><g id="node_priority8"><path id="kity_path_139" fill="#B25000" stroke="none" d="M380.00001126527786,219.0000046044588c0,3.866,3.134,7,7,7h6c3.866,0,7,-3.134,7,-7V213.0000046044588H380.00001126527786V219.0000046044588z"></path><path id="kity_path_140" fill="#FF962E" stroke="none" d="M400.00001126527786,216.0000046044588c0,3.866,-3.134,7,-7,7H387.00001126527786c-3.866,0,-7,-3.134,-7,-7V213.0000046044588c0,-3.866,3.134,-7,7,-7h6c3.866,0,7,3.134,7,7V216.0000046044588z" opacity="0.8"></path><text id="kity_text_141" text-rendering="geometricPrecision" x="389.0000112578273" y="215.50000459700823" text-anchor="middle" font-style="italic" font-size="12" fill="white" dy="5">4</text></g></g><g id="minder_node9"><g id="node_expander8" style="cursor: pointer;" display="none"><path id="kity_path_92" fill="white" stroke="gray" d="M369.5000110194087,275.5000056400895A6,6,0,1,1,357.5000110194087,275.5000056400895A6,6,0,1,1,369.5000110194087,275.5000056400895"></path><path id="kity_path_93" fill="none" stroke="gray"></path></g><path id="node_outline9" fill="none" stroke="none" d="M374.5000116303563,260.5000056400895h84a5,5,0,0,1,5,5v20a5,5,0,0,1,-5,5h-84a5,5,0,0,1,-5,-5v-20a5,5,0,0,1,5,-5z" stroke-width="3"></path><g id="node_text9" fill="black"><text id="kity_text_89" text-rendering="inherit" font-size="12" dy=".8em" y="267.7000056132674" x="404.5000116303563">＋聊天窗</text></g><g id="node_priority9"><path id="kity_path_144" fill="#4720C4" stroke="none" d="M380.00001126527786,279.0000054985285c0,3.866,3.134,7,7,7h6c3.866,0,7,-3.134,7,-7V273.0000054985285H380.00001126527786V279.0000054985285z"></path><path id="kity_path_145" fill="#A464FF" stroke="none" d="M400.00001126527786,276.0000054985285c0,3.866,-3.134,7,-7,7H387.00001126527786c-3.866,0,-7,-3.134,-7,-7V273.0000054985285c0,-3.866,3.134,-7,7,-7h6c3.866,0,7,3.134,7,7V276.0000054985285z" opacity="0.8"></path><text id="kity_text_146" text-rendering="geometricPrecision" x="389.0000112578273" y="275.5000054910779" text-anchor="middle" font-style="italic" font-size="12" fill="white" dy="5">5</text></g></g><g id="minder_node10" opacity="1"><g id="node_expander9" style="cursor: pointer;" display="none"><path id="kity_path_100" fill="white" stroke="gray" d="M369.5000110194087,155.50000385195017A6,6,0,1,1,357.5000110194087,155.50000385195017A6,6,0,1,1,369.5000110194087,155.50000385195017"></path><path id="kity_path_101" fill="none" stroke="gray"></path></g><path id="node_outline10" fill="none" stroke="none" d="M374.5000116303563,140.50000385195017h72a5,5,0,0,1,5,5v20a5,5,0,0,1,-5,5h-72a5,5,0,0,1,-5,-5v-20a5,5,0,0,1,5,-5z" stroke-width="3"></path><g id="node_text10" fill="black"><text id="kity_text_97" text-rendering="inherit" font-size="12" dy=".8em" y="147.70000382512808" x="404.5000116303563">＋数据</text></g><g id="node_priority7"><path id="kity_path_134" fill="#006300" stroke="none" d="M380.00001126527786,159.00000371038914c0,3.866,3.134,7,7,7h6c3.866,0,7,-3.134,7,-7V153.00000371038914H380.00001126527786V159.00000371038914z"></path><path id="kity_path_135" fill="#00AF00" stroke="none" d="M400.00001126527786,156.00000371038914c0,3.866,-3.134,7,-7,7H387.00001126527786c-3.866,0,-7,-3.134,-7,-7V153.00000371038914c0,-3.866,3.134,-7,7,-7h6c3.866,0,7,3.134,7,7V156.00000371038914z" opacity="0.8"></path><text id="kity_text_136" text-rendering="geometricPrecision" x="389.0000112578273" y="155.50000370293856" text-anchor="middle" font-style="italic" font-size="12" fill="white" dy="5">3</text></g></g><g id="minder_node11"><g id="node_expander10" style="cursor: pointer;" display="none"><path id="kity_path_153" fill="white" stroke="gray" d="M369.5000110194087,507.5000090971589A6,6,0,1,1,357.5000110194087,507.5000090971589A6,6,0,1,1,369.5000110194087,507.5000090971589"></path><path id="kity_path_154" fill="none" stroke="gray"></path></g><path id="node_outline11" fill="none" stroke="none" d="M374.5000116303563,492.5000090971589h72a5,5,0,0,1,5,5v20a5,5,0,0,1,-5,5h-72a5,5,0,0,1,-5,-5v-20a5,5,0,0,1,5,-5z" stroke-width="3"></path><g id="node_text11" fill="black"><text id="kity_text_150" text-rendering="inherit" font-size="12" dy=".8em" y="499.7000090703368" x="404.5000116303563">－数据</text></g><g id="node_priority12"><path id="kity_path_199" fill="#006300" stroke="none" d="M380.00001126527786,511.0000089555979c0,3.866,3.134,7,7,7h6c3.866,0,7,-3.134,7,-7V505.0000089555979H380.00001126527786V511.0000089555979z"></path><path id="kity_path_200" fill="#00AF00" stroke="none" d="M400.00001126527786,508.0000089555979c0,3.866,-3.134,7,-7,7H387.00001126527786c-3.866,0,-7,-3.134,-7,-7V505.0000089555979c0,-3.866,3.134,-7,7,-7h6c3.866,0,7,3.134,7,7V508.0000089555979z" opacity="0.8"></path><text id="kity_text_201" text-rendering="geometricPrecision" x="389.0000112578273" y="507.5000089481473" text-anchor="middle" font-style="italic" font-size="12" fill="white" dy="5">3</text></g></g><g id="minder_node12" opacity="1"><g id="node_expander11" style="cursor: pointer;" display="none"><path id="kity_path_161" fill="white" stroke="gray" d="M369.5000110194087,627.5000108852983A6,6,0,1,1,357.5000110194087,627.5000108852983A6,6,0,1,1,369.5000110194087,627.5000108852983"></path><path id="kity_path_162" fill="none" stroke="gray" d="M359.0000110194087,627.5000108852983L368.0000110194087,627.5000108852983"></path></g><path id="node_outline12" fill="none" stroke="none" d="M374.5000116303563,612.5000108852983h71a5,5,0,0,1,5,5v20a5,5,0,0,1,-5,5h-71a5,5,0,0,1,-5,-5v-20a5,5,0,0,1,5,-5z" stroke-width="3"></path><g id="node_text12" fill="black"><text id="kity_text_158" text-rendering="inherit" font-size="12" dy=".8em" y="619.7000108584762" x="404.5000116303563">－类目</text></g><g id="node_priority13"><path id="kity_path_204" fill="#840023" stroke="none" d="M380.00001126527786,631.0000107437372c0,3.866,3.134,7,7,7h6c3.866,0,7,-3.134,7,-7V625.0000107437372H380.00001126527786V631.0000107437372z"></path><path id="kity_path_205" fill="#FF1200" stroke="none" d="M400.00001126527786,628.0000107437372c0,3.866,-3.134,7,-7,7H387.00001126527786c-3.866,0,-7,-3.134,-7,-7V625.0000107437372c0,-3.866,3.134,-7,7,-7h6c3.866,0,7,3.134,7,7V628.0000107437372z" opacity="0.8"></path><text id="kity_text_206" text-rendering="geometricPrecision" x="389.0000112578273" y="627.5000107362866" text-anchor="middle" font-style="italic" font-size="12" fill="white" dy="5">1</text></g></g><g id="minder_node13" opacity="1"><g id="node_expander12" style="cursor: pointer;" display="none"><path id="kity_path_169" fill="white" stroke="gray" d="M369.5000110194087,567.5000099912286A6,6,0,1,1,357.5000110194087,567.5000099912286A6,6,0,1,1,369.5000110194087,567.5000099912286"></path><path id="kity_path_170" fill="none" stroke="gray"></path></g><path id="node_outline13" fill="none" stroke="none" d="M374.5000116303563,552.5000099912286h83a5,5,0,0,1,5,5v20a5,5,0,0,1,-5,5h-83a5,5,0,0,1,-5,-5v-20a5,5,0,0,1,5,-5z" stroke-width="3"></path><g id="node_text13" fill="black"><text id="kity_text_166" text-rendering="inherit" font-size="12" dy=".8em" y="559.7000099644065" x="404.5000116303563">－知识库</text></g><g id="node_priority14"><path id="kity_path_209" fill="#01467F" stroke="none" d="M380.00001126527786,571.0000098496675c0,3.866,3.134,7,7,7h6c3.866,0,7,-3.134,7,-7V565.0000098496675H380.00001126527786V571.0000098496675z"></path><path id="kity_path_210" fill="#0074FF" stroke="none" d="M400.00001126527786,568.0000098496675c0,3.866,-3.134,7,-7,7H387.00001126527786c-3.866,0,-7,-3.134,-7,-7V565.0000098496675c0,-3.866,3.134,-7,7,-7h6c3.866,0,7,3.134,7,7V568.0000098496675z" opacity="0.8"></path><text id="kity_text_211" text-rendering="geometricPrecision" x="389.0000112578273" y="567.500009842217" text-anchor="middle" font-style="italic" font-size="12" fill="white" dy="5">2</text></g></g><g id="minder_node14" opacity="1"><g id="node_expander13" style="cursor: pointer;" display="none"><path id="kity_path_177" fill="white" stroke="gray" d="M369.5000110194087,387.50000730901957A6,6,0,1,1,357.5000110194087,387.50000730901957A6,6,0,1,1,369.5000110194087,387.50000730901957"></path><path id="kity_path_178" fill="none" stroke="gray"></path></g><path id="node_outline14" fill="none" stroke="none" d="M374.5000116303563,372.50000730901957h84a5,5,0,0,1,5,5v20a5,5,0,0,1,-5,5h-84a5,5,0,0,1,-5,-5v-20a5,5,0,0,1,5,-5z" stroke-width="3"></path><g id="node_text14" fill="black"><text id="kity_text_174" text-rendering="inherit" font-size="12" dy=".8em" y="379.7000072821975" x="404.5000116303563">－聊天窗</text></g><g id="node_priority10"><path id="kity_path_189" fill="#4720C4" stroke="none" d="M380.00001126527786,391.00000716745853c0,3.866,3.134,7,7,7h6c3.866,0,7,-3.134,7,-7V385.00000716745853H380.00001126527786V391.00000716745853z"></path><path id="kity_path_190" fill="#A464FF" stroke="none" d="M400.00001126527786,388.00000716745853c0,3.866,-3.134,7,-7,7H387.00001126527786c-3.866,0,-7,-3.134,-7,-7V385.00000716745853c0,-3.866,3.134,-7,7,-7h6c3.866,0,7,3.134,7,7V388.00000716745853z" opacity="0.8"></path><text id="kity_text_191" text-rendering="geometricPrecision" x="389.0000112578273" y="387.50000716000795" text-anchor="middle" font-style="italic" font-size="12" fill="white" dy="5">5</text></g></g><g id="minder_node15" opacity="1"><g id="node_expander14" style="cursor: pointer;" display="none"><path id="kity_path_185" fill="white" stroke="gray" d="M369.5000110194087,447.50000820308924A6,6,0,1,1,357.5000110194087,447.50000820308924A6,6,0,1,1,369.5000110194087,447.50000820308924"></path><path id="kity_path_186" fill="none" stroke="gray"></path></g><path id="node_outline15" fill="none" stroke="none" d="M374.5000116303563,432.50000820308924h84a5,5,0,0,1,5,5v20a5,5,0,0,1,-5,5h-84a5,5,0,0,1,-5,-5v-20a5,5,0,0,1,5,-5z" stroke-width="3"></path><g id="node_text15" fill="black"><text id="kity_text_182" text-rendering="inherit" font-size="12" dy=".8em" y="439.70000817626715" x="404.5000116303563">－机器人</text></g><g id="node_priority11"><path id="kity_path_194" fill="#B25000" stroke="none" d="M380.00001126527786,451.0000080615282c0,3.866,3.134,7,7,7h6c3.866,0,7,-3.134,7,-7V445.0000080615282H380.00001126527786V451.0000080615282z"></path><path id="kity_path_195" fill="#FF962E" stroke="none" d="M400.00001126527786,448.0000080615282c0,3.866,-3.134,7,-7,7H387.00001126527786c-3.866,0,-7,-3.134,-7,-7V445.0000080615282c0,-3.866,3.134,-7,7,-7h6c3.866,0,7,3.134,7,7V448.0000080615282z" opacity="0.8"></path><text id="kity_text_196" text-rendering="geometricPrecision" x="389.0000112578273" y="447.5000080540776" text-anchor="middle" font-style="italic" font-size="12" fill="white" dy="5">4</text></g></g><g id="minder_node16" opacity="1"><g id="node_expander15" style="cursor: pointer;" display="none"><path id="kity_path_218" fill="white" stroke="gray" d="M369.5000110194087,331.50000647455454A6,6,0,1,1,357.5000110194087,331.50000647455454A6,6,0,1,1,369.5000110194087,331.50000647455454"></path><path id="kity_path_219" fill="none" stroke="gray"></path></g><path id="node_outline16" fill="none" stroke="none" d="M374.5000112578273,320.50000647455454h95a5,5,0,0,1,5,5v12a5,5,0,0,1,-5,5h-95a5,5,0,0,1,-5,-5v-12a5,5,0,0,1,5,-5z" stroke-width="3"></path><g id="node_text16" fill="black"><text id="kity_text_215" text-rendering="inherit" font-size="12" dy=".8em" y="323.70000644773245" x="379.5000112578273">介绍三方知识库</text></g></g><g id="kity_g_12" display="none"><path id="kity_path_13" fill="none" stroke="rgb(66, 94, 112)" d="M224.50000626593828,282.50001027435064h102a3,3,0,0,1,3,3v26a3,3,0,0,1,-3,3h-102a3,3,0,0,1,-3,-3v-26a3,3,0,0,1,3,-3z" stroke-width="5"></path></g></g></g></svg>