<svg id="kity_svg_6" xmlns="http://www.w3.org/2000/svg" xmlns:xlink="http://www.w3.org/1999/xlink" version="1.1" width="1224" height="665" style="background: rgb(251, 251, 251); visibility: visible;" viewBox="0 0 1224 665"><defs id="kity_defs_7"><linearGradient id="kity_linearGradient_17" x1="0" y1="0" x2="0" y2="1"><stop id="kity_stop_18" offset="0" stop-color="rgb(255, 255, 255)"></stop><stop id="kity_stop_19" offset="1" stop-color="rgb(204, 204, 204)"></stop></linearGradient><marker id="kity_marker_2" orient="auto" refX="6" refY="0" viewBox="-7 -7 14 14" markerWidth="7" markerHeight="7" markerUnits="userSpaceOnUse"><path id="kity_path_3" fill="rgb(115, 161, 191)" stroke="none" d="M6,0A6,6,0,1,1,-6,0A6,6,0,1,1,6,0"></path></marker><marker id="kity_marker_4" orient="auto" refX="6" refY="0" viewBox="-7 -7 14 14" markerWidth="7" markerHeight="7" markerUnits="userSpaceOnUse"><path id="kity_path_5" fill="rgb(115, 161, 191)" stroke="none" d="M6,0A6,6,0,1,1,-6,0A6,6,0,1,1,6,0"></path></marker></defs><g id="kity_g_8"><g id="minder1" text-rendering="optimize-speed"><g id="minder_connect_group1"><path id="kity_path_31" fill="none" stroke="rgb(115, 161, 191)" stroke-width="1" d="M541.0000110790133,530.5000067278743A167.4387052028294,167.4387052028294,0,0,1,167.50001107901335,341.5000067278743"></path><path id="kity_path_39" fill="none" stroke="rgb(115, 161, 191)" stroke-width="1" d="M167.50001107901335,341.5000067278743A370.64437133187386,370.64437133187386,0,0,1,416.00001107901335,66.50000672787428"></path><path id="kity_path_47" fill="none" stroke="rgb(115, 161, 191)" stroke-width="1" d="M416.00001107901335,66.50000672787428A444.38299922476784,444.38299922476784,0,0,1,859.5000110790133,94.50000672787428"></path><path id="kity_path_55" fill="none" stroke="rgb(115, 161, 191)" stroke-width="1" d="M859.5000110790133,94.50000672787428A478.11844766752097,478.11844766752097,0,0,1,1143.0000110790133,479.5000067278743"></path><path id="kity_path_63" fill="none" stroke="rgb(115, 161, 191)" stroke-width="1" d="M167.50001107901335,341.5000067278743A49.73529933558257,49.73529933558257,0,0,1,55.50001107901335,287.5000067278743"></path><path id="kity_path_71" fill="none" stroke="rgb(115, 161, 191)" stroke-width="1" d="M55.50001107901335,287.5000067278743A113.13708498984761,113.13708498984761,0,0,1,135.50001107901335,207.50000672787428"></path><path id="kity_path_79" fill="none" stroke="rgb(115, 161, 191)" stroke-width="1" d="M135.50001107901335,207.50000672787428A117.77202554087282,117.77202554087282,0,0,1,253.00001107901335,215.50000672787428"></path><path id="kity_path_87" fill="none" stroke="rgb(115, 161, 191)" stroke-width="1" d="M253.00001107901335,215.50000672787428A141.65097952361643,141.65097952361643,0,0,1,341.00001107901335,326.5000067278743"></path><path id="kity_path_95" fill="none" stroke="rgb(115, 161, 191)" stroke-width="1" d="M341.00001107901335,326.5000067278743A150.44268011438774,150.44268011438774,0,0,1,309.00001107901335,473.5000067278743"></path><path id="kity_path_103" fill="none" stroke="rgb(115, 161, 191)" stroke-width="1" d="M309.00001107901335,473.5000067278743A142.46490795982007,142.46490795982007,0,0,1,192.50001107901335,555.5000067278743"></path></g><g id="minder_node1"><path id="node_outline1" fill="rgb(115, 161, 191)" stroke="rgb(115, 161, 191)" d="M497.50001107901335,510.5000067278743h87a5,5,0,0,1,5,5v30a5,5,0,0,1,-5,5h-87a5,5,0,0,1,-5,-5v-30a5,5,0,0,1,5,-5z" stroke-width="3"></path><g id="node_text1" fill="white"><text id="kity_text_22" text-rendering="inherit" font-size="16" dy=".8em" y="520.1000066921115" x="516.5000110790133">云客服</text></g></g><g id="kity_g_12" display="none"><path id="kity_path_13" fill="none" stroke="none" d="M516.5000110790133,530.5000067278743h0v0h0z"></path></g><g id="kity_g_14" display="none"><path id="kity_path_15" fill="none" stroke="none" d="M516.5000110790133,530.5000067278743h0v0h0z"></path><path id="kity_path_16" fill="none" stroke="none"></path></g><g id="minder_node2"><g id="node_expander1" style="cursor: pointer;"><path id="kity_path_36" fill="white" stroke="gray" d="M182.00000600516796,341.5000039115548A6,6,0,1,1,170.00000600516796,341.5000039115548A6,6,0,1,1,182.00000600516796,341.5000039115548"></path><path id="kity_path_37" fill="none" stroke="gray" d="M171.50000600516796,341.5000039115548L180.50000600516796,341.5000039115548"></path></g><path id="node_outline2" fill="rgb(238, 243, 246)" stroke="rgb(115, 161, 191)" d="M116.50000574439764,325.5000039115548h102a3,3,0,0,1,3,3v26a3,3,0,0,1,-3,3h-102a3,3,0,0,1,-3,-3v-26a3,3,0,0,1,3,-3z" stroke-width="1"></path><g id="node_text2" fill="black"><text id="kity_text_33" text-rendering="inherit" font-size="14" dy=".8em" y="332.4000038802624" x="158.50000574439764">知识库</text></g><g id="node_priority6"><path id="kity_path_137" fill="#840023" stroke="none" d="M134.0000053793192,345.0000037699938c0,3.866,3.134,7,7,7h6c3.866,0,7,-3.134,7,-7V339.0000037699938H134.0000053793192V345.0000037699938z"></path><path id="kity_path_138" fill="#FF1200" stroke="none" d="M154.0000053793192,342.0000037699938c0,3.866,-3.134,7,-7,7H141.0000053793192c-3.866,0,-7,-3.134,-7,-7V339.0000037699938c0,-3.866,3.134,-7,7,-7h6c3.866,0,7,3.134,7,7V342.0000037699938z" opacity="0.8"></path><text id="kity_text_139" text-rendering="geometricPrecision" x="143.0000053718686" y="341.5000037625432" text-anchor="middle" font-style="italic" font-size="12" fill="white" dy="5">1</text></g></g><g id="minder_node3"><g id="node_expander2" style="cursor: pointer;" display="none"><path id="kity_path_44" fill="white" stroke="gray" d="M438.0000098198652,66.49999981373549A6,6,0,1,1,426.0000098198652,66.49999981373549A6,6,0,1,1,438.0000098198652,66.49999981373549"></path><path id="kity_path_45" fill="none" stroke="gray"></path></g><path id="node_outline3" fill="rgb(238, 243, 246)" stroke="rgb(115, 161, 191)" d="M372.5000095590949,50.499999813735485h87a3,3,0,0,1,3,3v26a3,3,0,0,1,-3,3h-87a3,3,0,0,1,-3,-3v-26a3,3,0,0,1,3,-3z" stroke-width="1"></path><g id="node_text3" fill="black"><text id="kity_text_41" text-rendering="inherit" font-size="14" dy=".8em" y="57.39999978244305" x="414.5000095590949">意图</text></g><g id="node_priority7"><path id="kity_path_142" fill="#01467F" stroke="none" d="M390.00000919401646,69.99999967217445c0,3.866,3.134,7,7,7h6c3.866,0,7,-3.134,7,-7V63.999999672174454H390.00000919401646V69.99999967217445z"></path><path id="kity_path_143" fill="#0074FF" stroke="none" d="M410.00000919401646,66.99999967217445c0,3.866,-3.134,7,-7,7H397.00000919401646c-3.866,0,-7,-3.134,-7,-7V63.999999672174454c0,-3.866,3.134,-7,7,-7h6c3.866,0,7,3.134,7,7V66.99999967217445z" opacity="0.8"></path><text id="kity_text_144" text-rendering="geometricPrecision" x="399.0000091865659" y="66.49999966472387" text-anchor="middle" font-style="italic" font-size="12" fill="white" dy="5">2</text></g></g><g id="minder_node4"><g id="node_expander3" style="cursor: pointer;" display="none"><path id="kity_path_52" fill="white" stroke="gray" d="M867.0000162124634,94.500000230968A6,6,0,1,1,855.0000162124634,94.500000230968A6,6,0,1,1,867.0000162124634,94.500000230968"></path><path id="kity_path_53" fill="none" stroke="gray"></path></g><path id="node_outline4" fill="rgb(238, 243, 246)" stroke="rgb(115, 161, 191)" d="M801.5000159516931,78.500000230968h116a3,3,0,0,1,3,3v26a3,3,0,0,1,-3,3h-116a3,3,0,0,1,-3,-3v-26a3,3,0,0,1,3,-3z" stroke-width="1"></path><g id="node_text4" fill="black"><text id="kity_text_49" text-rendering="inherit" font-size="14" dy=".8em" y="85.40000019967556" x="843.5000159516931">机器学习</text></g><g id="node_priority8"><path id="kity_path_147" fill="#006300" stroke="none" d="M819.0000155866146,98.00000008940697c0,3.866,3.134,7,7,7h6c3.866,0,7,-3.134,7,-7V92.00000008940697H819.0000155866146V98.00000008940697z"></path><path id="kity_path_148" fill="#00AF00" stroke="none" d="M839.0000155866146,95.00000008940697c0,3.866,-3.134,7,-7,7H826.0000155866146c-3.866,0,-7,-3.134,-7,-7V92.00000008940697c0,-3.866,3.134,-7,7,-7h6c3.866,0,7,3.134,7,7V95.00000008940697z" opacity="0.8"></path><text id="kity_text_149" text-rendering="geometricPrecision" x="828.000015579164" y="94.50000008195639" text-anchor="middle" font-style="italic" font-size="12" fill="white" dy="5">3</text></g></g><g id="minder_node5"><g id="node_expander4" style="cursor: pointer;" display="none"><path id="kity_path_60" fill="white" stroke="gray" d="M1150.000020429492,479.50000596791506A6,6,0,1,1,1138.000020429492,479.50000596791506A6,6,0,1,1,1150.000020429492,479.50000596791506"></path><path id="kity_path_61" fill="none" stroke="gray"></path></g><path id="node_outline5" fill="rgb(238, 243, 246)" stroke="rgb(115, 161, 191)" d="M1084.5000201687217,463.50000596791506h117a3,3,0,0,1,3,3v26a3,3,0,0,1,-3,3h-117a3,3,0,0,1,-3,-3v-26a3,3,0,0,1,3,-3z" stroke-width="1"></path><g id="node_text5" fill="black"><text id="kity_text_57" text-rendering="inherit" font-size="14" dy=".8em" y="470.4000059366226" x="1126.5000201687217">版本迭代</text></g><g id="node_priority9"><path id="kity_path_152" fill="#B25000" stroke="none" d="M1102.0000198036432,483.000005826354c0,3.866,3.134,7,7,7h6c3.866,0,7,-3.134,7,-7V477.000005826354H1102.0000198036432V483.000005826354z"></path><path id="kity_path_153" fill="#FF962E" stroke="none" d="M1122.0000198036432,480.000005826354c0,3.866,-3.134,7,-7,7H1109.0000198036432c-3.866,0,-7,-3.134,-7,-7V477.000005826354c0,-3.866,3.134,-7,7,-7h6c3.866,0,7,3.134,7,7V480.000005826354z" opacity="0.8"></path><text id="kity_text_154" text-rendering="geometricPrecision" x="1111.0000197961926" y="479.50000581890345" text-anchor="middle" font-style="italic" font-size="12" fill="white" dy="5">4</text></g></g><g id="minder_node6"><g id="node_expander5" style="cursor: pointer;" display="none"><path id="kity_path_68" fill="white" stroke="gray" d="M64.50000425428152,287.5000031068921A6,6,0,1,1,52.50000425428152,287.5000031068921A6,6,0,1,1,64.50000425428152,287.5000031068921"></path><path id="kity_path_69" fill="none" stroke="gray"></path></g><path id="node_outline6" fill="none" stroke="none" d="M25.500004209578037,272.5000031068921h60a5,5,0,0,1,5,5v20a5,5,0,0,1,-5,5h-60a5,5,0,0,1,-5,-5v-20a5,5,0,0,1,5,-5z" stroke-width="3"></path><g id="node_text6" fill="black"><text id="kity_text_65" text-rendering="inherit" font-size="12" dy=".8em" y="279.70000308007" x="55.50000420957804">类目</text></g><g id="node_priority1"><path id="kity_path_112" fill="#840023" stroke="none" d="M31.000003844499588,291.0000029653311c0,3.866,3.134,7,7,7h6c3.866,0,7,-3.134,7,-7V285.0000029653311H31.000003844499588V291.0000029653311z"></path><path id="kity_path_113" fill="#FF1200" stroke="none" d="M51.00000384449959,288.0000029653311c0,3.866,-3.134,7,-7,7H38.00000384449959c-3.866,0,-7,-3.134,-7,-7V285.0000029653311c0,-3.866,3.134,-7,7,-7h6c3.866,0,7,3.134,7,7V288.0000029653311z" opacity="0.8"></path><text id="kity_text_114" text-rendering="geometricPrecision" x="40.00000383704901" y="287.5000029578805" text-anchor="middle" font-style="italic" font-size="12" fill="white" dy="5">1</text></g></g><g id="minder_node7"><g id="node_expander6" style="cursor: pointer;" display="none"><path id="kity_path_76" fill="white" stroke="gray" d="M138.50000535696745,207.5000019147992A6,6,0,1,1,126.50000535696745,207.5000019147992A6,6,0,1,1,138.50000535696745,207.5000019147992"></path><path id="kity_path_77" fill="none" stroke="gray"></path></g><path id="node_outline7" fill="none" stroke="none" d="M99.50000531226397,192.5000019147992h72a5,5,0,0,1,5,5v20a5,5,0,0,1,-5,5h-72a5,5,0,0,1,-5,-5v-20a5,5,0,0,1,5,-5z" stroke-width="3"></path><g id="node_text7" fill="black"><text id="kity_text_73" text-rendering="inherit" font-size="12" dy=".8em" y="199.70000188797712" x="129.50000531226397">知识库</text></g><g id="node_priority2"><path id="kity_path_117" fill="#01467F" stroke="none" d="M105.00000494718552,211.00000177323818c0,3.866,3.134,7,7,7h6c3.866,0,7,-3.134,7,-7V205.00000177323818H105.00000494718552V211.00000177323818z"></path><path id="kity_path_118" fill="#0074FF" stroke="none" d="M125.00000494718552,208.00000177323818c0,3.866,-3.134,7,-7,7H112.00000494718552c-3.866,0,-7,-3.134,-7,-7V205.00000177323818c0,-3.866,3.134,-7,7,-7h6c3.866,0,7,3.134,7,7V208.00000177323818z" opacity="0.8"></path><text id="kity_text_119" text-rendering="geometricPrecision" x="114.00000493973494" y="207.5000017657876" text-anchor="middle" font-style="italic" font-size="12" fill="white" dy="5">2</text></g></g><g id="minder_node8"><g id="node_expander7" style="cursor: pointer;" display="none"><path id="kity_path_84" fill="white" stroke="gray" d="M261.5000071898103,215.5000020340085A6,6,0,1,1,249.50000718981028,215.5000020340085A6,6,0,1,1,261.5000071898103,215.5000020340085"></path><path id="kity_path_85" fill="none" stroke="gray"></path></g><path id="node_outline8" fill="none" stroke="none" d="M222.5000071451068,200.5000020340085h61a5,5,0,0,1,5,5v20a5,5,0,0,1,-5,5h-61a5,5,0,0,1,-5,-5v-20a5,5,0,0,1,5,-5z" stroke-width="3"></path><g id="node_text8" fill="black"><text id="kity_text_81" text-rendering="inherit" font-size="12" dy=".8em" y="207.7000020071864" x="252.5000071451068">数据</text></g><g id="node_priority3"><path id="kity_path_122" fill="#006300" stroke="none" d="M228.00000678002834,219.00000189244747c0,3.866,3.134,7,7,7h6c3.866,0,7,-3.134,7,-7V213.00000189244747H228.00000678002834V219.00000189244747z"></path><path id="kity_path_123" fill="#00AF00" stroke="none" d="M248.00000678002834,216.00000189244747c0,3.866,-3.134,7,-7,7H235.00000678002834c-3.866,0,-7,-3.134,-7,-7V213.00000189244747c0,-3.866,3.134,-7,7,-7h6c3.866,0,7,3.134,7,7V216.00000189244747z" opacity="0.8"></path><text id="kity_text_124" text-rendering="geometricPrecision" x="237.00000677257776" y="215.5000018849969" text-anchor="middle" font-style="italic" font-size="12" fill="white" dy="5">3</text></g></g><g id="minder_node9"><g id="node_expander8" style="cursor: pointer;" display="none"><path id="kity_path_92" fill="white" stroke="gray" d="M343.5000084117055,326.5000036880374A6,6,0,1,1,331.5000084117055,326.5000036880374A6,6,0,1,1,343.5000084117055,326.5000036880374"></path><path id="kity_path_93" fill="none" stroke="gray"></path></g><path id="node_outline9" fill="none" stroke="none" d="M304.500008367002,311.5000036880374h73a5,5,0,0,1,5,5v20a5,5,0,0,1,-5,5h-73a5,5,0,0,1,-5,-5v-20a5,5,0,0,1,5,-5z" stroke-width="3"></path><g id="node_text9" fill="black"><text id="kity_text_89" text-rendering="inherit" font-size="12" dy=".8em" y="318.7000036612153" x="334.500008367002">机器人</text></g><g id="node_priority4"><path id="kity_path_127" fill="#B25000" stroke="none" d="M310.00000800192356,330.00000354647636c0,3.866,3.134,7,7,7h6c3.866,0,7,-3.134,7,-7V324.00000354647636H310.00000800192356V330.00000354647636z"></path><path id="kity_path_128" fill="#FF962E" stroke="none" d="M330.00000800192356,327.00000354647636c0,3.866,-3.134,7,-7,7H317.00000800192356c-3.866,0,-7,-3.134,-7,-7V324.00000354647636c0,-3.866,3.134,-7,7,-7h6c3.866,0,7,3.134,7,7V327.00000354647636z" opacity="0.8"></path><text id="kity_text_129" text-rendering="geometricPrecision" x="319.000007994473" y="326.5000035390258" text-anchor="middle" font-style="italic" font-size="12" fill="white" dy="5">4</text></g></g><g id="minder_node10"><g id="node_expander9" style="cursor: pointer;" display="none"><path id="kity_path_100" fill="white" stroke="gray" d="M311.50000793486834,473.5000058785081A6,6,0,1,1,299.50000793486834,473.5000058785081A6,6,0,1,1,311.50000793486834,473.5000058785081"></path><path id="kity_path_101" fill="none" stroke="gray"></path></g><path id="node_outline10" fill="none" stroke="none" d="M272.50000789016485,458.5000058785081h73a5,5,0,0,1,5,5v20a5,5,0,0,1,-5,5h-73a5,5,0,0,1,-5,-5v-20a5,5,0,0,1,5,-5z" stroke-width="3"></path><g id="node_text10" fill="black"><text id="kity_text_97" text-rendering="inherit" font-size="12" dy=".8em" y="465.700005851686" x="302.50000789016485">聊天窗</text></g><g id="node_priority5"><path id="kity_path_132" fill="#4720C4" stroke="none" d="M278.0000075250864,477.00000573694706c0,3.866,3.134,7,7,7h6c3.866,0,7,-3.134,7,-7V471.00000573694706H278.0000075250864V477.00000573694706z"></path><path id="kity_path_133" fill="#A464FF" stroke="none" d="M298.0000075250864,474.00000573694706c0,3.866,-3.134,7,-7,7H285.0000075250864c-3.866,0,-7,-3.134,-7,-7V471.00000573694706c0,-3.866,3.134,-7,7,-7h6c3.866,0,7,3.134,7,7V474.00000573694706z" opacity="0.8"></path><text id="kity_text_134" text-rendering="geometricPrecision" x="287.0000075176358" y="473.5000057294965" text-anchor="middle" font-style="italic" font-size="12" fill="white" dy="5">5</text></g></g><g id="minder_node11" opacity="1"><g id="node_expander10" style="cursor: pointer;" display="none"><path id="kity_path_108" fill="white" stroke="gray" d="M171.50000584870577,555.5000071004033A6,6,0,1,1,159.50000584870577,555.5000071004033A6,6,0,1,1,171.50000584870577,555.5000071004033"></path><path id="kity_path_109" fill="none" stroke="gray"></path></g><path id="node_outline11" fill="none" stroke="none" d="M157.50000580400229,544.5000071004033h70a5,5,0,0,1,5,5v12a5,5,0,0,1,-5,5h-70a5,5,0,0,1,-5,-5v-12a5,5,0,0,1,5,-5z" stroke-width="3"></path><g id="node_text11" fill="black"><text id="kity_text_105" text-rendering="inherit" font-size="12" dy=".8em" y="547.7000070735812" x="162.50000580400229">三方知识库</text></g></g></g></g></svg>